<svg xmlns="http://www.w3.org/2000/svg" xmlns:xlink="http://www.w3.org/1999/xlink" width="790.295" height="398.681"><defs><clipPath id="a"><path d="M0 0h533.332v533.332H0V0z"/></clipPath><clipPath id="b"><path d="M0 0h533.332v533.332H0V0z"/></clipPath><clipPath id="c"><path d="M0 0h533.332v533.332H0V0z"/></clipPath><clipPath id="d"><path d="M0 0h533.332v533.332H0V0z"/></clipPath><clipPath id="e"><path d="M0 0h533.332v533.332H0V0z"/></clipPath><clipPath id="f"><path d="M0 0h533.332v533.332H0V0z"/></clipPath><clipPath id="g"><path d="M0 0h533.332v533.332H0V0z"/></clipPath><clipPath id="h"><path d="M0 0h533.332v533.332H0V0z"/></clipPath><linearGradient id="i"><stop offset="0" stop-color="#fde7e7" stop-opacity=".749"/><stop offset="1" stop-color="#f37575" stop-opacity=".749"/></linearGradient><radialGradient xlink:href="#i" id="o" cx="586.57" cy="43.351" fx="586.57" fy="43.351" r="62.242" gradientTransform="matrix(1,0,0,0.60759496,0,17.011334)" gradientUnits="userSpaceOnUse"/><linearGradient id="j"><stop offset="0" stop-color="#f5ccfb" stop-opacity=".749"/><stop offset="1" stop-color="#dc4ff0" stop-opacity=".749"/></linearGradient><linearGradient id="k"><stop offset="0" stop-color="#f5ccfb" stop-opacity=".749"/><stop offset="1" stop-color="#dc4ff0" stop-opacity=".749"/></linearGradient><radialGradient r="62.242" fy="43.351" fx="586.57" cy="43.351" cx="586.57" gradientTransform="matrix(1,0,0,0.60759496,0,17.011334)" gradientUnits="userSpaceOnUse" id="n" xlink:href="#k"/><linearGradient id="l"><stop offset="0" stop-color="#5e5e5e"/><stop offset=".4" stop-color="#6ef1eb"/><stop offset=".7" stop-color="#6ef1eb"/><stop offset="1" stop-color="#5e5e5e"/></linearGradient><linearGradient y2="428.578" x2="464.248" y1="388.221" x1="464.248" gradientTransform="matrix(1.2465758,0,0,1.6267333,-231.91793,-174.10156)" gradientUnits="userSpaceOnUse" id="m" xlink:href="#l"/></defs><g transform="matrix(0,1.25,1.25,0,-135.55784,-94.648437)"><g fill-rule="evenodd"><path d="M325.8 108.917h41.88V736.43H325.8V108.918z" fill="silver"/><path d="M313.68 109.153h13.68v626.924h-13.68V109.153zM364.2 108.446h13.68v627.63H364.2v-627.63z" fill="gray"/></g><path d="M298.84 490.155c0-17.96 3.44-32.405 7.778-32.405h75.094c4.338 0 7.928 14.445 7.928 32.405 0 17.764-3.59 32.21-7.928 32.21h-75.094c-4.338 0-7.778-14.446-7.778-32.21z" fill="url(#m)"/><path d="M648.812 43.35c0 20.888-27.867 37.82-62.242 37.82s-62.242-16.932-62.242-37.82c0-20.885 27.867-37.816 62.242-37.816s62.242 16.93 62.242 37.817z" transform="matrix(0,0.778242,0.78333333,0,270.00774,-95.069373)" fill="url(#n)"/><path d="M648.812 43.35c0 20.888-27.867 37.82-62.242 37.82s-62.242-16.932-62.242-37.82c0-20.885 27.867-37.816 62.242-37.816s62.242 16.93 62.242 37.817z" transform="matrix(0,0.70126582,0.78333333,0,72.683752,151.67255)" fill="url(#o)"/><g fill-rule="evenodd"><path d="M165.54 110.008h37.468v626.244H165.54V110.008z" opacity=".4" fill="silver"/><path d="M152.16 109.618h13.68v626.274h-13.68V109.618zM202.68 110.158h13.68v625.734h-13.68V110.158z" opacity=".4" fill="gray"/></g><text transform="translate(-1.6,19.2) matrix(0,1,0.99944031,0,289.92,129.591)"><tspan y="0" x="0 8.8800335 16.920063 25.800097 34.68013 42.600159 46.200165 55.0802" style="-inkscape-font-specification:Helvetica" font-size="15.969" fill="#339" font-family="Helvetica">espacio </tspan><tspan y="17.29" x="-35.16008 -31.560064 -22.680031 -18.240015 -9.3599825 -4.079958 9.240097 18.120131 31.440186 40.44022 45.720242 54.600277 63.480309 72.480339 77.760368 81.360374" style="-inkscape-font-specification:Helvetica" font-size="15.969" fill="#339" font-family="Helvetica">intermembranario</tspan><tspan y="104.218" x="5.7600236 19.080078 27.960112 32.520123 37.800144 41.40015" style="-inkscape-font-specification:Helvetica" font-size="15.969" fill="#339" font-family="Helvetica">matriz</tspan></text><text transform="matrix(0,1,0.99946029,0,354,475.791)"><tspan y="0" x="0 9.4799528 18.959906" style="-inkscape-font-specification:Garamond Bold" font-size="24.013" font-weight="bold" font-family="Garamond">III</tspan></text><text transform="matrix(0,1,0.99944031,0,245.88,409.431)"><tspan y="0" x="0 8.8800182 12.360024 15.960032 24.000048 32.880066 38.160076 47.040092 50.640106 55.920116 64.800133 70.080147 74.520157 83.400169 91.440186 95.880196 104.76022 109.20023" style="-inkscape-font-specification:Helvetica" font-size="15.969" font-family="Helvetica">glicerol-3-fosfato</tspan><tspan y="41.543251 41.543251" x="37.080154 37.080154" style="-inkscape-font-specification:Helvetica" font-size="15.969" font-family="Helvetica"> DhaP</tspan></text><path d="M126.72 622.07l.12-3 .12-3.12.12-3.12v-6.36l-.12-3.12-.12-3-.12-3.12-.24-2.88-.24-3-.24-2.76-.36-2.88-.36-2.64-.36-2.64-.48-2.64-.48-2.52-.6-2.4-.48-2.28-.6-2.28-.6-2.16-.72-2.04-.6-1.92-.72-1.8-.72-1.8-.84-1.56-.72-1.56-.84-1.32-.84-1.32-.84-1.08-.96-1.08-.84-.84-.96-.72-1.08-.6-.96-.48h-.12l-.96-.24h-.12l-.96-.12h-.12l-.96.12h-.12l-.84.24h-.12l-.96.48-.96.48-1.08.84-.84.84-.96.96-.84 1.2-.84 1.2-.84 1.44-.84 1.44-.72 1.68-.72 1.68-.72 1.92-.72 1.92-.6 2.04-.6 2.16-.6 2.28-.6 2.28-.48 2.4-.48 2.52-.48 2.52-.36 2.76-.36 2.64-.36 2.76-.36 2.88-.24 3-.24 2.88-.12 3.12-.12 3v3.12l-.12 3.24.12 3.12h1.44v-6.36l.12-3 .12-3.12.12-3 .24-2.88.24-2.88.24-2.88.36-2.76.36-2.76.36-2.52.48-2.64.48-2.4.48-2.4.6-2.28.6-2.28.6-2.04.6-2.04.72-1.92.6-1.8.72-1.68.72-1.56.84-1.44.72-1.32.84-1.2.72-.96.84-.96.84-.84.84-.6.84-.48.84-.36.84-.24h-.12.96-.12.96-.12l.96.24h-.12l.84.36.84.48.84.6.84.84.84.84.84 1.08.72 1.2.84 1.32.72 1.44.72 1.56.72 1.68.72 1.8.72 1.92.6 2.04.6 2.04.6 2.28.48 2.28.6 2.4.36 2.4.48 2.52.48 2.64.36 2.76.24 2.76.36 2.76.24 3 .24 2.88.12 3 .12 3.12.12 3v6.36l-.12 3-.12 3.12-.12 3.12h1.44zm-37.32-9.24l-5.16-3.84 5.28 9.84 4.8-10.08"/><text transform="matrix(0,1,0.99944031,0,92.88,627.711)"><tspan y="0" x="0 11.520022 22.200073" style="-inkscape-font-specification:Helvetica" font-size="15.969" font-family="Helvetica">NAD</tspan><tspan y="38.662" x="0 11.520022 22.200073 33.720097" style="-inkscape-font-specification:Helvetica" font-size="15.969" font-family="Helvetica">NADH</tspan></text><text transform="translate(-4.4605932,6.0605932) matrix(0,1,0.99944031,0,254.88,233.151)"><tspan y="0" x="0 8.8800335 12.36004 15.960046 24.000061 32.880081 38.160091 47.040108 50.640121 55.920132 64.800148 75.480202" style="-inkscape-font-specification:Helvetica-Oblique" font-size="15.969" font-style="oblique" fill="#b812fa" font-family="Helvetica">glicerol-3P </tspan><tspan y="17.41" x="-19.080078 -10.200046 -1.3200128 6.7200174 15.600036 19.200043 28.080061 33.360069 42.240089 51.120106 60.000126 68.880142 77.760162 85.800179" style="-inkscape-font-specification:Helvetica-Oblique" font-size="15.969" font-style="oblique" fill="#b812fa" font-family="Helvetica">deshidrogenasa</tspan><tspan y="34.699" x="-5.280055 7.9199991 11.520006 15.960015 24.840033 32.880051 41.760067 50.640087 59.520103 64.800117 68.400124 77.280136" style="-inkscape-font-specification:Helvetica-Oblique" font-size="15.969" font-style="oblique" fill="#b812fa" font-family="Helvetica">mitocondrial</tspan></text><path d="M346.2 388.43v72.6h1.56v-72.6h-1.56zm.72 72.6l-4.92-3.96 4.92 9.96 5.04-9.96M241.2 399.71l.12-2.88v-2.76l.24-2.76.24-2.76.24-2.64.36-2.52.48-2.52.48-2.52.6-2.4.6-2.4.6-2.28.72-2.28.72-2.16.84-2.04.84-1.92.96-1.92.96-1.8.96-1.68 1.08-1.68.96-1.44 1.2-1.44 1.08-1.32 1.2-1.2 1.08-1.08 1.32-.96 1.2-.84 1.2-.72 1.32-.48 1.32-.48 1.32-.36 1.32-.24h2.64l1.32.24 1.32.36 1.32.48 1.2.6 1.32.72 1.2.84 1.2.96 1.2.96 1.2 1.2 1.08 1.32 1.08 1.44 1.08 1.44 1.08 1.68.96 1.68.96 1.8.84 1.92.84 1.92.84 2.16.72 2.04.72 2.28.72 2.28.6 2.4.48 2.4.48 2.52.48 2.52.36 2.52.24 2.76.24 2.64.24 2.76.12 2.76v5.76l-.12 2.88-.24 2.88-.24 2.76-.36 2.76-.36 2.76-.48 2.76-.6 2.64-.6 2.52-.6 2.52-.84 2.4-.72 2.4-.84 2.28-.48.84 1.44.6.36-.96.96-2.28.72-2.4.84-2.52.6-2.52.72-2.64.48-2.64.48-2.76.48-2.76.36-2.88.24-2.76.12-3 .12-2.88.12-2.88-.12-2.88-.12-2.88-.12-2.76-.24-2.76-.36-2.64-.36-2.64-.36-2.64-.6-2.52-.48-2.4-.6-2.4-.72-2.4-.72-2.28-.72-2.16-.84-2.16-.96-1.92-.84-2.04-.96-1.8-1.08-1.8-1.08-1.68-1.08-1.56-1.2-1.44-1.08-1.32-1.32-1.32-1.2-1.08-1.32-1.08-1.32-.84-1.32-.84-1.44-.6-1.44-.48-1.44-.36-1.44-.24-1.56-.12-1.44.12-1.44.24-1.44.36-1.44.48-1.44.72-1.32.72-1.32.96-1.32.96-1.2 1.08-1.32 1.32-1.08 1.32-1.2 1.56-1.08 1.56-1.08 1.56-.96 1.8-.96 1.92-.96 1.92-.84 2.04-.84 2.04-.84 2.16-.72 2.28-.6 2.4-.72 2.4-.48 2.4-.48 2.52-.48 2.64-.36 2.64-.36 2.64-.24 2.76-.12 2.76-.12 2.88v2.88h1.44zm47.88 35.64l-2.76-5.88.12 11.28 8.88-6.84"/><text transform="matrix(0,1,0.99946029,0,303.36,324.471)"><tspan y="0" x="0 8.5200253 17.880035" style="-inkscape-font-specification:Helvetica" font-size="14.048" font-family="Helvetica">FAD</tspan><tspan y="14.288" x="31.080074 39.600101 48.96011 59.040119" style="-inkscape-font-specification:Helvetica" font-size="14.048" font-family="Helvetica">FADH</tspan></text><text transform="matrix(0,1,0.99948027,0,321.6,393.591)"><tspan y="0" x="0" style="-inkscape-font-specification:Helvetica" font-size="9.005" font-family="Helvetica">2</tspan></text><path d="M290.64 352.43l-.48 1.56-.36 1.68-.24 1.8-.12 1.68.12 1.92.24 1.92.48 1.8.6 1.68.72 1.68.96 1.56.96 1.44 1.2 1.44 1.2 1.2 1.44 1.08 1.44.96 1.56.84.84.36.6-1.44-.72-.24-1.44-.72-1.44-.96-1.2-.96-1.2-1.08-1.08-1.32-.96-1.32-.72-1.44-.72-1.56-.6-1.56-.36-1.68-.24-1.8-.12-1.8v-1.56l.24-1.56.36-1.56.48-1.56-1.44-.48zm10.92 23.88l-4.92 4.08 10.8-3-8.88-6.72"/><path d="M322.32 364.55l.96-1.32.84-1.32.72-1.56.6-1.44.48-1.56.24-1.56.24-1.68.12-1.68-.12-.96v-.96l-.24-1.8-.48-1.92-.6-1.68-.72-1.68-.96-1.56-.96-1.44-1.2-1.32-1.32-1.32-1.32-1.08-1.56-.96-1.56-.84-1.56-.6-1.08-.24-.48 1.44.96.24 1.56.6 1.44.72 1.32.84 1.32.96 1.08 1.2 1.08 1.2.96 1.32.84 1.44.72 1.56.6 1.56.36 1.68.24 1.8.12.84v2.52l-.24 1.44-.24 1.44-.48 1.44-.48 1.44-.72 1.32-.72 1.32-.96 1.2 1.2.96zm-9.72-29.76l4.32-4.68-10.32 4.2 9.6 5.76" fill="#e80082"/><text transform="matrix(0,1,0.99946029,0,353.4,319.431)"><tspan y="0" x="0 10.920024 42.000126 52.920151" style="-inkscape-font-specification:Helvetica-Bold" font-size="14.048" font-weight="bold" fill="#e80082" font-family="Helvetica">Q QH</tspan></text><text transform="matrix(0,1,0.99948027,0,357.36,382.431)"><tspan y="0" x="0" style="-inkscape-font-specification:Helvetica-Bold" font-size="9.005" font-weight="bold" fill="#e80082" font-family="Helvetica">2</tspan></text><path d="M340.44 327.35l-1.32.36-1.32.36-1.32.72-1.2.72-1.08.84-1.08 1.08-.96 1.08-.96 1.2-.72 1.32-.72 1.32-.72 1.56-.48 1.56-.36 1.56-.36 1.68-.12 1.68-.12 1.8v1.68l.24 1.56.24 1.56.36 1.56.48 1.56.6 1.32.6 1.44.72 1.2.84 1.2.96 1.2.96.96.36.24.96-1.08-.24-.24-.96-.84-.72-1.08-.84-1.08-.6-1.2-.72-1.2-.48-1.32-.48-1.44-.36-1.44-.24-1.44-.12-1.56v-3.24l.12-1.56.36-1.56.36-1.44.48-1.44.6-1.44.6-1.32.72-1.2.84-1.08.96-.96.96-.96.96-.84 1.08-.6 1.08-.6 1.2-.36 1.32-.36-.36-1.44zm-6 33.84l-6 2.4 11.16.48-6.24-9.24" fill="#e80082"/><path d="M84.12 517.43l.48 1.8.48 1.8.48 1.8.48 1.68.6 1.68.6 1.56.6 1.56.6 1.44.6 1.56.72 1.32.6 1.32.72 1.32.72 1.2.72 1.08.84 1.08.72 1.08.84.96.84.84.84.84.84.72.84.72.84.6.96.48.84.48.96.36.96.36.96.24.96.12h2.28l1.2-.24 1.32-.48 1.2-.48 1.32-.72 1.08-.72 1.2-.96 1.08-1.08 1.08-1.08 1.08-1.32 1.08-1.44.96-1.44.96-1.68.84-1.68.96-1.8.84-1.92.72-1.92.84-2.16.72-2.16.6-2.16.6-2.4.6-2.4.6-2.4.48-2.52.36-2.64.36-2.64.36-2.64.24-2.76.24-2.88.12-2.76.12-2.88v-6.84l-.24-3.96-.24-3.84-.36-3.84-1.56.24.48 3.72.24 3.84.12 3.84.12 3.84-.12 2.88v2.88l-.24 2.76-.12 2.88-.24 2.64-.36 2.76-.36 2.52-.48 2.64-.48 2.4-.48 2.52-.6 2.28-.6 2.28-.6 2.16-.72 2.16-.72 2.04-.84 1.92-.72 1.92-.96 1.68-.84 1.68-.96 1.56-.84 1.44-.96 1.32-1.08 1.2-.96 1.08-1.08.96-1.08.96-1.08.72-.96.6-1.2.36-1.08.36-1.08.24-1.2.12-.84-.12-.84-.12-.72-.12-.84-.24-.84-.36-.84-.36-.84-.48-.72-.6-.84-.6-.84-.72-.72-.72-.84-.84-.72-.96-.72-.96-.72-1.08-.72-1.08-.72-1.08-.72-1.32-.6-1.2-.6-1.44-.72-1.32-.6-1.44-.6-1.56-.48-1.56-.6-1.68-.48-1.68-.48-1.68-.48-1.8-.36-1.8-1.56.36zm.72-.12l5.76 2.88-6.84-8.76-3 10.8"/><text transform="matrix(0,1.00028,0.99972012,0,0,0)" x="581.348" y="354.579" font-size="11.997"><tspan style="-inkscape-font-specification:Helvetica" x="581.34827 593.58478 606.90106" y="354.579" font-size="20.046" font-family="Helvetica">TEM</tspan></text><text transform="matrix(0,1.000275,0.99972511,0,0,0)" x="235.006" y="501.498" font-size="11.997"/><text transform="matrix(0,1.000275,0.99972511,0,0,0)" x="330.38" y="501.498" font-size="11.997"/><text transform="matrix(0,1.000275,0.99972511,0,0,0)" x="408.239" y="501.498" font-size="11.997"/><text transform="matrix(0,1.000275,0.99972511,0,0,0)" x="430.913" y="501.498" font-size="11.997"/><text transform="matrix(0,1.000275,0.99972511,0,0,0)" x="507.692" y="501.498" font-size="11.997"/><text transform="matrix(0,1.000275,0.99972511,0,0,0)" x="531.925" y="501.498" font-size="11.997"/><path d="M126.48 676.55l-20.16 20.28h10.08v20.16H76.08v20.16h60.48v-40.32h10.08" fill="#f7ea4f" fill-rule="evenodd"/><path d="M126.48 676.55l-20.16 20.28h10.08v20.16H76.08v20.16h60.48v-40.32h10.08l-20.16-20.28z" fill="none" stroke="#000" stroke-width=".75" stroke-linecap="round" stroke-linejoin="round" stroke-miterlimit="10"/><path d="M333.48 565.67h6.6v-40.44h13.08v40.44h6.6l-13.2 13.56" fill="#bbe0e3" fill-rule="evenodd"/><path d="M333.48 565.67h6.6v-40.44h13.08v40.44h6.6l-13.2 13.56-13.08-13.56z" color="#000" fill="#f7ea4f" fill-rule="evenodd" stroke="#000" stroke-width=".75" stroke-linecap="round" stroke-linejoin="round" stroke-miterlimit="10" overflow="visible"/><text transform="matrix(0,1,0.99944031,0,88.92,386.511)"><tspan y="0" x="0 8.8800182 12.360024 15.960032 24.000048 32.880066 38.160076 47.040092 50.640106 55.920116 64.800133 70.080147 74.520157 83.400169 91.440186 95.880196 104.76022 109.20023" style="-inkscape-font-specification:Helvetica" font-size="15.969" font-family="Helvetica">glicerol-3-fosfato</tspan><tspan y="48.267014 48.267014" x="36.960087 36.960087" style="-inkscape-font-specification:Helvetica" font-size="15.969" font-family="Helvetica"> DhaP</tspan></text><path d="M145.44 472.19l.72.72 1.2 1.08 1.32 1.08 2.52 2.28 2.76 2.52.48.36 1.92-2.28-.36-.36-2.76-2.52-2.64-2.28-1.2-1.08-1.2-1.08-.84-.72-1.92 2.28zm15.6 14.04l1.92 1.8 3.12 3 3.12 3 .48.48 2.04-2.16-.48-.36-3.12-3.12-3.12-3-1.92-1.8-2.04 2.16zm14.88 14.64l2.52 2.76 2.88 3.36.72.84.72.84.96 1.2 2.4-1.92-.96-1.2-.84-.96-.72-.84-3-3.36-2.52-2.76-2.16 2.04zm12.84 16.2l1.44 2.52 1.56 2.52 1.56 2.64 1.56 2.64 2.64-1.56-1.56-2.64-1.56-2.64-1.56-2.64-1.56-2.4-2.52 1.56zm10.56 18.12l.36.6 3.24 5.64 1.68 2.76.72 1.32 2.64-1.44-.84-1.44-1.56-2.76-3.24-5.64-.36-.6-2.64 1.56zm10.8 18.12l.96 1.44 1.56 2.52 1.68 2.28 1.56 2.16 1.2 1.56 2.4-1.92-1.08-1.32-1.68-2.16-1.56-2.28-1.56-2.4-.96-1.56-2.52 1.68zm13.44 16.68l.48.36.84.6.84.6.84.48.84.36.84.36.84.36.84.12.84.24h1.8l.84-.12.96-.24.84-.36.84-.36.12-.12-1.32-2.64-.72.36-.6.24-.48.12-.6.12h-1.2l-.6-.12-.6-.12-.72-.24-.6-.24-.72-.36-.72-.36-.6-.48-.72-.48-.6-.48-1.8 2.4zm19.68-4.08l.12-.12.72-.96.84-1.08.72-1.08.84-1.2.72-1.2 1.56-2.4 1.2-2.16-2.52-1.44-1.2 1.92-1.56 2.52-.72 1.08-.72 1.08-.72 1.08-.72 1.08-.72.84-.12.12 2.28 1.92zm11.04-18.24l.6-1.08 1.44-3.12 1.44-3.12 1.68-3.6-2.76-1.2-1.68 3.6-1.44 3-1.44 3-.6 1.2 2.76 1.32zm8.76-19.08l.36-.84 1.32-3.12 1.32-3.12 1.2-3 .48-.96-2.76-1.2-.48.96-1.2 3.12-1.32 3-1.32 3.12-.36.84 2.76 1.2zm8.16-19.32l.72-1.68 1.08-2.4.6-1.08.48-1.08.48-1.08.48-.96.48-.96.36-.84.48-.72-2.64-1.44-.48.84-.48.84-.48.96-.48.96-.48 1.08-.48 1.08-.48 1.2-1.08 2.4-.72 1.68 2.64 1.2zm-124.8-38.16l9.48-1.56-16.2-4.44 6.24 15.6" fill="#9c0"/><text transform="translate(0,17.6) matrix(0,1,0.99944031,0,142.92,127.911)"><tspan y="0" x="0 8.0400305 11.640038 16.080046 24.960079 33.000111 41.760143" style="-inkscape-font-specification:Helvetica" font-size="15.969" fill="#339" font-family="Helvetica">citosol</tspan><tspan y="36.861" x="6.8400283 20.160084 29.040115 42.360172 51.360203 56.640228 65.520264 74.400291 83.280327" style="-inkscape-font-specification:Helvetica" font-size="15.969" fill="#339" font-family="Helvetica">membrana </tspan><tspan y="54.27" x="-26.880045 -13.559997 -9.9599829 -5.5199666 3.3600667 11.400097 20.28013 29.160164 38.040195 43.320221 46.920227 55.800259 59.400269 63.840275 72.720306 80.640343 85.080345 93.960381 99.240395 108.12042" style="-inkscape-font-specification:Helvetica" font-size="15.969" fill="#339" font-family="Helvetica">mitocondrial externa</tspan><tspan y="197.751" x="10.920112 24.240166 33.120201 46.440254 55.440289 60.720314 69.600342 78.480377 87.360413" style="-inkscape-font-specification:Helvetica" font-size="15.969" fill="#339" font-family="Helvetica">membrana </tspan><tspan y="215.16" x="-20.639952 -7.3199043 -3.7198977 0.72011137 9.6001444 17.640175 26.520208 35.400242 44.280273 49.560299 53.160305 62.040337 65.640343 69.96035 73.560364 82.440392 86.880402 95.760437 101.16046 110.04048" style="-inkscape-font-specification:Helvetica" font-size="15.969" fill="#339" font-family="Helvetica">mitocondrial interna</tspan></text><path d="M95.76 381.23l4.08-2.4 4.08-2.4 2.16-1.2-1.44-2.64-2.28 1.32-4.08 2.4-4.08 2.4 1.56 2.52zm18.24-10.2l1.92-.96 2.04-.96 1.92-.84 1.92-.84 1.92-.72 1.08-.36-.96-2.88-1.2.48-1.92.72-2.04.84-2.04.96-2.04.84-1.92 1.08 1.32 2.64zm19.2-6.96l1.92-.24 1.8-.12 1.8-.12h1.68l1.8.12 1.68.24.72.24.6-3-.84-.12-1.92-.24-1.92-.24h-2.04l-1.92.12-1.92.12-1.92.36.48 2.88zm19.32 3.12l1.32.84 1.56 1.08.72.72.72.6.84.84.72.84.84.84.72.96.72 1.08 2.4-1.8-.72-1.08-.84-1.08-.84-.96-.96-.96-.84-.84-.84-.84-.96-.72-1.68-1.2-1.32-.84-1.56 2.52zm12.84 15.24l.72 1.32 1.44 3 1.56 3.12 1.44 3.24 2.76-1.2-1.56-3.36-1.44-3.12-1.56-3-.72-1.44-2.64 1.44zm8.64 18.96l.84 2.04 1.44 3.72 2.04 5.4 2.76-1.08-2.04-5.52-1.44-3.6-.84-2.04-2.76 1.08zm7.44 19.56l.24.84 1.44 3.72 1.32 3.6 1.08 3.12 2.88-.96-1.2-3.24-1.32-3.6-1.32-3.6-.36-.84-2.76.96zm7.32 19.8l.84 2.04 1.2 3.12 1.32 3 .6 1.44.6 1.44v.12l2.76-1.32-.6-1.44-.6-1.32-1.32-3-1.2-3.12-.84-2.04-2.76 1.08zm8.76 19.32h.12l.6.96.6.96.6.84 1.2 1.56 1.2 1.32 1.08 1.32 1.2 1.08 1.08 1.08.48.36 1.92-2.4-.36-.24-1.08-.84-.96-1.08-1.08-1.2-1.08-1.32-1.2-1.44-.48-.72-.6-.84-.6-.96-2.64 1.56zm16.8 13.68l.72.12h2.04l1.08-.12.96-.12.96-.24.96-.24.96-.36.96-.36.84-.36-1.32-2.76-.6.36-.84.24-.72.36-.84.24-.84.12-.84.12-.72.12h-1.68l-.6-.12-.48 3zm8.88-3.12l-1.2 9.6 8.88-14.28-16.68 1.44" fill="#9c0"/><rect width="80.669" height="30.752" x="660.013" y="363.911" ry=".202" transform="matrix(0,1,1,0,0,0)" fill="#fff"/><path d="M366.997 666.552l.123 69.032c0 .964-.143 1.826 1.925 1.826l22.733-.085V664.81H368.96c-1.02 0-1.963.098-1.963 1.742z" fill="#aab2ab"/><path d="M366.722 736.187v-70.342c0-.755.614-1.37 1.368-1.37h23.9c.17 0 .31.14.31.31v72.46c0 .172-.14.31-.31.31h-23.9c-.754 0-1.368-.614-1.368-1.368zm.618-70.342v70.342c0 .414.336.75.75.75h16.577V686.66c3.332-1.842 5.594-5.393 5.594-9.467 0-4.076-2.26-7.626-5.593-9.467v-2.632H368.09c-.414 0-.75.337-.75.75z"/><path d="M378.628 685.5c4.586.003 8.305-3.713 8.308-8.3.003-4.584-3.713-8.304-8.298-8.307h-.01c-4.585-.003-8.305 3.713-8.308 8.298-.002 4.588 3.713 8.308 8.298 8.31h.01z" fill="#fff"/><path d="M371.865 683.947c1.842 1.84 4.096 2.762 6.763 2.762s4.898-.906 6.692-2.716c1.89-1.92 2.833-4.19 2.833-6.81 0-2.587-.936-4.818-2.81-6.69-1.873-1.874-4.11-2.81-6.715-2.81-2.603 0-4.858.936-6.763 2.81-1.84 1.825-2.762 4.056-2.762 6.69 0 2.668.92 4.92 2.762 6.763zm1.24-12.214c1.57-1.556 3.413-2.335 5.525-2.335 2.113 0 3.94.77 5.48 2.31 1.54 1.542 2.31 3.376 2.31 5.505 0 2.128-.778 3.978-2.334 5.55-1.446 1.493-3.264 2.24-5.456 2.24-2.175 0-4.02-.76-5.538-2.276-1.516-1.517-2.275-3.355-2.275-5.514 0-2.16.763-3.987 2.287-5.48zm4.596 4.097c-.517-.238-.777-.594-.777-1.07 0-.838.566-1.258 1.696-1.258s1.693.42 1.693 1.26c0 .554-.275.95-.826 1.187l.62 1.163c.985-.555 1.478-1.387 1.478-2.497 0-.855-.262-1.54-.787-2.056-.524-.515-1.248-.773-2.17-.773-.906 0-1.625.266-2.158.797-.533.53-.8 1.193-.8 1.985 0 1.172.463 2.01 1.387 2.52l.644-1.26zm0 5.475c-.517-.238-.777-.588-.777-1.047 0-.857.566-1.285 1.696-1.285s1.693.428 1.693 1.285c0 .555-.275.944-.826 1.166l.62 1.19c.985-.554 1.478-1.385 1.478-2.493 0-.854-.262-1.537-.787-2.052-.524-.514-1.248-.77-2.17-.77-.906 0-1.625.26-2.158.782-.533.522-.8 1.186-.8 1.994 0 1.17.463 2.01 1.387 2.515l.644-1.285z"/><g transform="matrix(0,0.60899128,0.60899128,0,366.72151,664.47628) matrix(0.9937808,0,0,0.9936696,-437.12334,-74.436914)"><circle cx="491.946" cy="90.232" r="10.806" fill="#fff"/><path d="M495.074 87.105c0-.417-.338-.754-.754-.754h-4.773c-.416 0-.754.338-.754.755v4.773h1.33v5.652h3.62v-5.652h1.33v-4.773z"/><circle cx="491.934" cy="84.09" r="1.632"/><path clip-rule="evenodd" d="M491.918 78.325c-3.23 0-5.967 1.128-8.207 3.384-2.296 2.332-3.445 5.095-3.445 8.284 0 3.19 1.15 5.93 3.446 8.227 2.3 2.295 5.036 3.443 8.208 3.443 3.213 0 6-1.157 8.355-3.472 2.22-2.196 3.33-4.93 3.33-8.196 0-3.268-1.13-6.03-3.39-8.285-2.257-2.257-5.022-3.385-8.295-3.385zm.03 2.1c2.65 0 4.897.934 6.747 2.8 1.87 1.848 2.805 4.105 2.805 6.77 0 2.682-.916 4.91-2.747 6.68-1.927 1.905-4.196 2.858-6.804 2.858-2.612 0-4.86-.943-6.75-2.83-1.888-1.886-2.832-4.122-2.832-6.71 0-2.586.954-4.842 2.862-6.767 1.83-1.867 4.07-2.8 6.72-2.8z" fill-rule="evenodd"/></g><g fill="#fff"><path d="M386.664 693.952c0 .192.018.368.05.526.035.16.09.295.168.408.077.113.18.2.307.263.127.06.285.092.474.092.203 0 .372-.046.507-.14.137-.09.248-.228.335-.41.07.25.196.437.375.56.18.123.395.184.648.184.203 0 .38-.04.528-.12.148-.078.27-.185.364-.32.094-.132.164-.286.21-.457.045-.173.067-.35.067-.53v-1.96h-4.033v1.902zm1.63-.113c0 .157-.036.287-.11.39-.076.1-.198.152-.367.152-.094 0-.172-.017-.23-.05-.062-.035-.108-.08-.143-.137-.033-.057-.057-.122-.07-.195-.013-.074-.02-.15-.02-.23v-.83h.94v.9zm1.713.05c0 .088-.008.17-.026.25-.016.08-.044.148-.083.21-.04.06-.093.107-.16.144-.07.035-.156.053-.26.053-.208 0-.355-.058-.444-.175-.088-.117-.132-.272-.132-.464v-.968h1.107v.95zM386.664 695.593v.994l1.593.944-1.593.94v.99l2.485-1.498h1.547v-.89h-1.57l-2.463-1.48z"/></g><g fill="#fff"><path d="M389.7 724.426c.094.05.17.113.23.194.057.08.1.176.13.285.027.11.04.22.04.338 0 .08-.005.163-.02.254-.012.09-.037.174-.075.253-.037.08-.09.144-.155.198-.066.052-.15.078-.252.078-.11 0-.197-.035-.265-.104-.068-.07-.124-.16-.17-.273-.044-.114-.084-.243-.118-.385-.034-.143-.072-.288-.113-.434-.038-.15-.084-.297-.138-.44-.055-.142-.126-.27-.213-.383-.085-.113-.193-.204-.323-.273-.13-.07-.287-.105-.472-.105-.207 0-.387.043-.54.13-.152.09-.28.206-.38.348-.103.143-.178.305-.227.486-.05.18-.073.36-.073.542 0 .21.024.413.07.607.048.193.125.365.23.515.106.15.24.27.404.36.163.087.362.132.595.132v-.86c-.12-.01-.22-.033-.3-.077-.078-.043-.14-.1-.186-.172-.045-.07-.078-.15-.096-.243-.02-.09-.03-.192-.03-.3 0-.07.01-.143.024-.214.015-.07.04-.136.08-.194.037-.06.083-.106.14-.144.057-.038.128-.056.215-.056.08 0 .143.014.192.044.05.03.094.09.136.178.042.09.083.21.125.367l.158.61c.015.076.043.18.082.314.04.133.103.266.19.397.086.133.202.247.347.343.145.096.33.144.557.144.183 0 .354-.036.513-.108.158-.072.295-.18.41-.32.114-.14.204-.316.268-.525.065-.21.097-.45.097-.726 0-.223-.028-.44-.082-.648-.055-.21-.14-.393-.258-.553-.117-.16-.266-.288-.447-.383-.18-.094-.396-.14-.644-.135v.86c.135 0 .25.025.344.074zM386.664 729.423l4.033 1.508v-.92l-.898-.305v-1.508l.897-.317v-.892l-4.033 1.525v.91zm2.473.05l-1.48-.508v-.01l1.48-.526v1.044z"/></g><g fill="#fff"><path d="M386.664 708.64l2.706 1.684v.01h-2.706v.832h4.033v-.888l-2.7-1.678v-.01h2.7v-.833h-4.033v.882zM387.74 714.533c-.086-.053-.16-.12-.225-.198-.063-.08-.114-.17-.15-.27-.035-.1-.053-.203-.053-.312 0-.2.04-.37.116-.51.077-.138.18-.25.31-.337.13-.087.278-.15.443-.19.167-.04.338-.06.515-.06.17 0 .334.02.494.06.16.04.303.103.43.19.13.086.23.2.31.338.076.14.115.31.115.51 0 .27-.083.482-.25.634-.165.153-.383.246-.655.28v.86c.253-.024.48-.082.684-.176.204-.094.377-.22.52-.373.144-.155.254-.336.33-.544.075-.207.113-.435.113-.683 0-.31-.054-.587-.16-.834-.108-.247-.257-.456-.445-.626-.188-.17-.41-.3-.664-.39-.255-.09-.528-.136-.822-.136-.302 0-.58.045-.84.136-.258.09-.483.22-.675.39-.19.17-.342.38-.45.625-.11.246-.165.524-.165.833 0 .222.032.432.096.63.065.198.16.375.282.53.122.157.274.286.455.388.18.103.388.166.62.193v-.86c-.1-.014-.194-.048-.278-.1z"/></g><path d="M375.845 734.254c3.56.003 6.447-2.88 6.45-6.44.002-3.56-2.88-6.45-6.44-6.452h-.01c-3.56-.002-6.448 2.882-6.45 6.44-.003 3.562 2.88 6.45 6.44 6.452h.01z" fill="#fff"/><path d="M368.783 727.762c0-1.956.683-3.612 2.048-4.967 1.413-1.39 3.085-2.086 5.015-2.086 1.93 0 3.59.694 4.978 2.085 1.39 1.39 2.083 3.046 2.083 4.967 0 1.944-.7 3.63-2.1 5.056-1.33 1.343-2.984 2.015-4.96 2.015-1.978 0-3.65-.683-5.015-2.05-1.364-1.368-2.047-3.04-2.047-5.02zm1.27.018c0 1.603.566 2.963 1.696 4.083 1.117 1.13 2.482 1.697 4.095 1.697 1.624 0 2.97-.554 4.043-1.662 1.153-1.166 1.73-2.54 1.73-4.118 0-1.58-.572-2.94-1.713-4.084-1.142-1.143-2.495-1.714-4.06-1.714-1.566 0-2.93.577-4.096 1.732-1.13 1.108-1.696 2.463-1.696 4.066z"/><path d="M374.848 724.632c-1.777.28-2.726 1.532-2.726 3.1 0 2.254 1.635 3.628 3.817 3.628 2.127 0 3.78-1.462 3.78-3.664 0-1.514-.932-2.87-2.76-3.117v1.778c.95.053 1.283.67 1.283 1.55 0 1.004-.932 1.655-2.357 1.655-1.496 0-2.287-.563-2.287-1.62 0-.775.28-1.444 1.248-1.585l-.003.517 1.4-1.4-1.4-1.4.003.557z"/><g><path d="M375.85 717.947c3.35.003 6.068-2.71 6.07-6.062.002-3.35-2.71-6.067-6.06-6.07h-.01c-3.35-.002-6.066 2.712-6.07 6.062 0 3.35 2.712 6.067 6.062 6.07h.01z" fill="#fff"/><path d="M370.835 716.893c-1.365-1.368-2.048-3.04-2.048-5.02 0-1.957.683-3.613 2.048-4.968 1.413-1.39 3.084-2.086 5.015-2.086 1.93 0 3.59.694 4.978 2.085 1.39 1.39 2.084 3.046 2.084 4.967 0 1.945-.7 3.63-2.1 5.056-1.33 1.344-2.985 2.016-4.962 2.016-1.978 0-3.65-.684-5.015-2.05zm9.058-.884c1.153-1.168 1.73-2.54 1.73-4.12s-.57-2.94-1.713-4.084c-1.142-1.143-2.495-1.714-4.06-1.714-.662 0-1.288.104-1.878.31l.828 1.872v-.135h.84v.662c.118 0 .236-.012.354-.012h.2v-.65h.84v.768c.627.106 1.135.343 1.537.662.876.662 1.35 1.726 1.35 2.885 0 .757-.225 1.442-.45 1.844l-1.312-.285c.13-.248.307-.803.307-1.347 0-.592-.177-1.147-.603-1.526-.2-.177-.473-.307-.828-.39v2.57l1.617 3.653c.45-.253.863-.574 1.243-.966zm-3.698-4.595l-.012-.015.012.027v-.012zm-.556 2.2v.105h-.84v-2.002l-.36-.813c-.157.07-.298.153-.408.25-.45.366-.64.886-.64 1.454 0 .52.154 1.003.285 1.31l-1.348.332c-.19-.426-.356-1.052-.356-1.774 0-1.11.45-2.057 1.206-2.73.173-.15.367-.28.572-.398l-1.028-2.322c-.337.225-.66.49-.97.796-1.13 1.108-1.696 2.463-1.696 4.066 0 1.603.565 2.964 1.695 4.084 1.12 1.13 2.484 1.696 4.097 1.696.53 0 1.032-.06 1.505-.18l-1.716-3.876z"/></g><text style="line-height:125%;-inkscape-font-specification:Arial" x="608.549" y="388.567" transform="matrix(0,1,1,0,0,0)" font-size="32" letter-spacing="0" word-spacing="0" font-family="Arial"><tspan x="608.549" y="388.567" font-size="8">Angel Herráez</tspan></text><path d="M303.896 457.74c4.68 0 8.52 14.4 8.52 32.04s-3.84 32.04-8.52 32.04c-4.8 0-8.64-14.4-8.64-32.04s3.84-32.04 8.64-32.04" fill="#84ffff" fill-rule="evenodd"/><g><text transform="translate(-51.519045,7.188559) matrix(0,1,0.99944031,0,202.08,482.751)"><tspan y="0" x="0 8.8800182 12.360024 15.960032 24.000048 32.880066 38.160103 47.040123 50.640137 55.920174 64.800194 75.480247 79.92025 88.80027 97.68029 105.72031 114.48032 117.96033 126.84035 132.12039 141.00041 149.88042 158.76044 167.64046 176.52048 184.5605" style="-inkscape-font-specification:Helvetica-Oblique" font-size="15.969" font-style="oblique" fill="red" font-family="Helvetica">glicerol-3P deshidrogenasa</tspan><tspan y="17.41" x="63.840229 71.880249 75.480255 79.920265 88.800278 96.840309 105.60033 109.08034 112.68034 120.72036" style="-inkscape-font-specification:Helvetica-Oblique" font-size="15.969" font-style="oblique" fill="red" font-family="Helvetica">citosólica</tspan></text></g></g></svg>